<svg xmlns="http://www.w3.org/2000/svg" xmlns:xlink="http://www.w3.org/1999/xlink" width="86" height="58" viewBox="0 0 86 58"><defs><style>.a{fill:#f8f8fa;}.b{clip-path:url(#a);}.c{fill:#006c35;}.d{fill:#fff;fill-rule:evenodd;}</style><clipPath id="a"><rect class="a" width="86" height="58" rx="8" transform="translate(949.088 1405.931)"/></clipPath></defs><g class="b" transform="translate(-949.088 -1405.931)"><g transform="translate(948.384 1406)"><rect class="c" width="87" height="58" transform="translate(-0.296 -0.069)"/><path class="d" d="M50.876,22.2a.441.441,0,0,0-.206.08,1.531,1.531,0,0,0-.644,1.081c-.013.284-.066.282.119.463.134.193.268.174.539.033a.572.572,0,0,0,.26-.38c.065-.322-.339.152-.391-.206-.09-.333.167-.47.412-.792.006-.152.008-.276-.09-.278Zm3.942.022c-.076.01-.168.107-.3.34a1.437,1.437,0,0,0-.2,1.374,4.081,4.081,0,0,1,.224,2.141,4.118,4.118,0,0,1-.412.582.676.676,0,0,1-.872.119.933.933,0,0,1-.521-.734,10.062,10.062,0,0,0-.08-2.365.429.429,0,0,0-.716-.145,5.4,5.4,0,0,0-1.3,2.665c-.2.647-.414.46-.564.2-.365-.342-.391-3.018-.832-2.578-.706,2.018.405,4.229,1.175,4.014.556.23.908-.827,1.136-1.985.156-.325.275-.362.354-.2-.021,1.54.11,1.883.506,2.351a1.278,1.278,0,0,0,1.671.029l.687-.687a.413.413,0,0,1,.571-.029c.21.191.183.52.633.749a1.39,1.39,0,0,0,1.374-.289c.252-.432.313-.581.43-.745.18-.24.488-.134.488-.058-.029.134-.21.266-.087.506.214.161.264.057.391.022.448-.214.785-1.186.785-1.186.02-.363-.186-.335-.318-.26-.172.105-.182.141-.354.246-.219.033-.643.177-.853-.148a12.905,12.905,0,0,1-.38-1.331c0-.029-.287-.62-.022-.658.134.025.421.1.466-.141.14-.234-.3-.9-.6-1.233a.65.65,0,0,0-.973-.029c-.245.225-.209.477-.257.716a1.119,1.119,0,0,0,.228.976,2.97,2.97,0,0,1,.542,1.974.792.792,0,0,1-.712.362c-.189-.041-.5-.123-.662-1.334-.124-.917.031-2.2-.358-2.8-.088-.227-.163-.447-.289-.43Zm-1.247.1c-.118.01-.248.147-.354.412a6.7,6.7,0,0,0-.184,1.255c-.073.314.328.446.51.043a3.843,3.843,0,0,0,.293-1.367c-.043-.239-.146-.354-.264-.344Zm4.607.083c-.121.011-.217.082-.253.26a2.746,2.746,0,0,0,.047,1,3.536,3.536,0,0,0,.561.85c.8,1.073,1.566,2.15,2.307,3.266.117.828.2,1.638.257,2.445a49.236,49.236,0,0,1,.047,5.833c.331.013.862-.535,1.049-1.338a38.921,38.921,0,0,0-.054-4.032c-.008-.272-.025-.6-.043-.937.862,1.409,1.7,2.9,2.521,4.542.3-.142.233-1.828.058-2.065-.657-1.415-1.566-2.812-1.855-3.349-.1-.194-.46-.735-.882-1.36-.078-.891-.162-1.645-.217-1.873-.136-.942.387.106.315-.441a6.025,6.025,0,0,0-1.3-2.441c-.2-.28-.194-.337-.5.069a1.8,1.8,0,0,0-.127,1.081c-.08-.117-.18-.255-.322-.427-.53-.454-.562-.479-1-.85a1.085,1.085,0,0,0-.6-.231Zm13.655.141c-.059-.009-.123.02-.2.127a.822.822,0,0,0-.282.622c.034.5.122,1,.156,1.5.012.066.024.132.036.2a1.935,1.935,0,0,0-.127-.148c-.967-1.016.444-.166-.184-.951a7.534,7.534,0,0,0-1.143-1.121c-.228-.148-.366-.429-.441.051a9.458,9.458,0,0,0-.033,1.266,1.7,1.7,0,0,0,.38.788c.645.793,1.3,1.637,1.967,2.517.139,1.8.177,3.441.318,5.24-.02.769-.257,1.791-.481,1.888,0,0-.343.2-.571-.022a6.858,6.858,0,0,1-.832-1.11.507.507,0,0,0-.81,0,11.179,11.179,0,0,0-1.425,2.687c-.117.186-.447.344-.814-.014a3.789,3.789,0,0,1-.5-2.618,2.9,2.9,0,0,0-.275,2.817A2.21,2.21,0,0,0,67.6,37.429a.72.72,0,0,0,1.07-.116c.488-.506.494-1.8.723-2.054a.428.428,0,0,1,.759-.181,1.868,1.868,0,0,0,.694.6,1.166,1.166,0,0,0,1.533.108,1.777,1.777,0,0,0,.817-1,35.03,35.03,0,0,0,.065-5.627c.344.484.683.979,1.02,1.479a36.674,36.674,0,0,1,.166,4.607c-.035.3,1.031-.882,1.023-1.439,0-.488,0-.93,0-1.342.517.825,1.017,1.664,1.49,2.513.293-.155.193-1.814.007-2.043-.5-.831-1.129-1.728-1.62-2.423-.1-.877-.229-1.911-.289-2.228-.094-.494-.187-1.236-.329-1.823a6.232,6.232,0,0,1-.119-1.031c.058-.164.276.005.383-.184a6.571,6.571,0,0,0-.922-2.568c-.131-.238-.368-.156-.662.231-.272.255-.173.836-.069,1.389.27,1.409.511,2.844.7,4.275-.353-.525-.784-1.16-1.208-1.772-.011-.059-.054-.275-.054-.278,0-.025-.058-1.152-.108-1.421-.009-.109-.035-.14.08-.127a.656.656,0,0,0,.213.141c.122.022.229-.184.156-.376-.379-.7-.757-1.4-1.136-2.1a.315.315,0,0,0-.156-.1Zm-35.241.036c-.21-.006-.441.124-.351.376-.053.137.411.6.492.857.073.182-.072.767.08.821s.332-.405.405-.835c.04-.236.01-1.042-.539-1.208a.449.449,0,0,0-.087-.011Zm40.145,0c-.048,0-.106.082-.2.271a2.513,2.513,0,0,0-.2,1.537,84.485,84.485,0,0,1,.98,9.977,3.232,3.232,0,0,1-.2.821,6.584,6.584,0,0,1-.958,1.117c-.317.236-.991.461-1.211.636-.7.4-.7.869-.137.886a3.485,3.485,0,0,0,2.922-1.392,4.647,4.647,0,0,0,.474-1.8,42.1,42.1,0,0,0-.532-8.827,4.386,4.386,0,0,1-.094-.828c.063-.162.382.016.5-.17.167-.17-.825-1.439-1.172-1.982-.069-.136-.112-.248-.174-.242Zm-10.22.054c-.04.007-.1.068-.21.213a4.77,4.77,0,0,0-.264,2.17,47.186,47.186,0,0,1,1.3,10.448c.332,0,.715-.759.879-1.512a12.818,12.818,0,0,0-.087-2.278c-.027-.61-.69-5.556-.825-6.018-.162-.872.645-.115.557-.622-.279-.64-.975-1.571-1.193-2.126-.082-.149-.092-.286-.159-.275Zm-24.884.069a.261.261,0,0,0-.2.2c-.019.077.033.2-.036.242-.04.04-.191.013-.184-.2a.354.354,0,0,0-.08-.181.158.158,0,0,0-.1-.025c-.066,0-.065.02-.1.076a.626.626,0,0,0-.037.177c-.008.075-.039.1-.094.112s-.047.007-.1-.025c-.03-.033-.065-.046-.065-.1A.6.6,0,0,0,40.6,22.8a.2.2,0,0,0-.116-.065c-.26,0-.279.3-.264.412-.019.021-.029.551.325.7.476.227,1.369.131,1.331-.636,0-.068-.015-.3-.022-.358a.2.2,0,0,0-.224-.141Zm6.386.007a1.064,1.064,0,0,0-.434.119.822.822,0,0,0-.141,1.089c.242.114.483.358.322.492-.684.73-2.463,1.951-2.553,2.173l0,.007s0,.006,0,.007,0,0,0,0l0,.007,0,0h0l0,0h0l0,0a5.066,5.066,0,0,0,1.327,0l0,0h0s0,0,0,0a18.732,18.732,0,0,0,2.2-2.217c-.094-.081-.181-.14-.275-.221s-.091-.173,0-.26a.72.72,0,0,0,.072-1.1,1.172,1.172,0,0,0-.542-.108Zm16.693.007c-.048,0-.106.078-.2.268a3.047,3.047,0,0,0-.344,1.537c.465,3.219.607,6.035.911,9.254a1.272,1.272,0,0,1-.228.944,9.071,9.071,0,0,1-3.07,2.239c-.129.145.321.764.9.763a3.428,3.428,0,0,0,2.626-2.1,3.746,3.746,0,0,0,.6-1.613,35.212,35.212,0,0,0-.655-8.173,1.348,1.348,0,0,1,.029-.571c.063-.075.277,0,.391-.184.167-.17-.445-1.58-.792-2.123-.069-.136-.112-.245-.174-.239Zm-25.86.1a.428.428,0,0,0-.322.271,9.322,9.322,0,0,0,.033,1.508,16.484,16.484,0,0,1,.423,2.423c.032,1.145-.661.5-.629-.072a5.157,5.157,0,0,0-.025-2.192c-.113-.294-.243-.367-.517-.318-.218-.013-.78.6-.937,1.613a9.523,9.523,0,0,0-.188.984c-.077.524-.424.894-.665-.072-.209-.7-.337-2.434-.687-2.029-.1,1.352-.219,3.73.929,3.974,1.389.134.622-2.348,1.125-2.8.1-.223.271-.227.286.054v2.108a1.013,1.013,0,0,0,.788,1.031c.364-.028.606-.018.749.336q.085,1.823.174,3.649s.842.242.882-2.05a21.425,21.425,0,0,1-.087-2.738c.006-.257.336-.27.564-.145.363.256.524.571,1.089.445.859-.237,1.376-.653,1.389-1.313a5.719,5.719,0,0,0-.394-1.88c.038-.114-.164-.41-.127-.524.154.242.388.222.441,0a1.88,1.88,0,0,0-.741-1.143c-.3-.268-.748-.211-.911.347a3.039,3.039,0,0,0,.7,2.029,1.989,1.989,0,0,1,.177,1.013.541.541,0,0,1-.705-.137s-.683-.512-.683-.626a2.451,2.451,0,0,0-.061-1.617,2.18,2.18,0,0,0-.452-.89c-.171-.181-.4-.181-.514,0a3.064,3.064,0,0,0,.058,2.152c.158.463.4.752.286.752-.094.262-.289.2-.43-.1a7.521,7.521,0,0,1-.242-1.974c-.06-.52-.128-1.631-.47-1.913a.325.325,0,0,0-.3-.156Zm4.878.007c-.069.009-.145.048-.235.069a.689.689,0,0,0-.485.846c.349,2.121.577,3.74.926,5.862.054.248-.155.576-.423.542-.457-.309-.57-.934-1.349-.908a1.518,1.518,0,0,0-1.287,1.211,2.941,2.941,0,0,0,0,1.389,1.129,1.129,0,0,0,1.287.318c.342-.141.624-.478.745-.4h0s0,0,0,0c.075.13-.007,1.234-1.613,2.087-.987.443-1.772.549-2.2-.257-.262-.5.019-2.421-.626-1.978-1.907,4.914,4.467,5.6,5.179.2.046-.152.187-.305.286-.268.043.019.083.078.1.188-.148,4.888-4.93,5.223-5.743,3.685a4.74,4.74,0,0,1-.282-1.653.824.824,0,0,0-.2-.528c-.194-.146-.454.234-.51.893a5.925,5.925,0,0,0-.058,1.186c.255,3.86,6.41,2.2,7.41-.987.5-1.649-.01-2.892.156-3.045l.007,0,.007,0,.007,0a.1.1,0,0,1,.022,0c.611.658,1.468.084,1.656-.145a.275.275,0,0,1,.423-.04.988.988,0,0,0,1.486-.423,13.376,13.376,0,0,0,.206-1.83,1.855,1.855,0,0,0-.662.275.174.174,0,0,0-.047.087c-.027.175-.053.35-.08.524a.129.129,0,0,1-.014.04.168.168,0,0,1-.058.054c-.11.06-.3.026-.311-.134-.148-.671-.755-.759-1.125.282-.248.2-.7.241-.749-.061.06-.7-.221-.792-.785-.463-.181-1.383-.361-2.7-.542-4.086.235-.007.451.164.665-.1a7.766,7.766,0,0,0-1-2.333l-.007,0a.369.369,0,0,0-.04-.04l-.018-.014-.018-.011a.2.2,0,0,0-.036-.014.187.187,0,0,0-.076-.007Zm19.018.011c-.244-.007-.514.146-.409.452-.061.167.524.732.618,1.042.17.475-.13.929.047.994s.389-.491.474-1.013a1.574,1.574,0,0,0-.629-1.465.505.505,0,0,0-.1-.011Zm-14.816.521a.359.359,0,0,1,.311.235c.07.154.035.3-.08.329s-.263-.074-.333-.228-.035-.3.08-.333Zm27.484.712a.36.36,0,0,0-.369.492c-.056.18.475.793.561,1.128.077.238-.118,1.007.043,1.078s.357-.531.434-1.1c.043-.309-.186-1.394-.575-1.588a.408.408,0,0,0-.094-.014Zm-15.2.376c.02.091.041.182.054.275.046.2.085.4.127.6-.176-.242-.321-.437-.383-.506-.4-.472.009-.31.2-.365Zm3.5,1.721a.266.266,0,0,0-.2.206c-.019.077.037.2-.033.239-.04.04-.194.017-.188-.2a.367.367,0,0,0-.08-.184.158.158,0,0,0-.1-.025c-.066,0-.065.02-.1.076a.66.66,0,0,0-.036.177c-.008.075-.035.1-.09.112s-.051.007-.1-.025c-.03-.033-.065-.046-.065-.1a.6.6,0,0,0-.033-.188.2.2,0,0,0-.116-.061c-.26,0-.275.3-.26.409-.019.021-.033.554.322.7.476.227,1.372.127,1.334-.64,0-.068-.019-.3-.025-.358a.2.2,0,0,0-.224-.141Zm-15.984.159a.385.385,0,0,0-.224.069.98.98,0,0,0-.322,1.3.634.634,0,0,0,.683.221c.412.052.658-.774.658-.774s.012-.232-.477.206c-.206.039-.234-.036-.286-.152a1.027,1.027,0,0,1,.065-.647c.046-.129,0-.211-.1-.221Zm22.595.1a.533.533,0,0,0-.546.459c0,.188.085.292.069.463-.024.1-.125.162-.365.047.038-.035-.156-.307-.156-.307-.187-.114-.437.006-.6.112a.914.914,0,0,0-.054.727c.269.5,1.191,1.344,1.631,1.353.008-.448.052-1.044.076-1.414.01-.14.043-.294.177-.329s.366.135.369-.011a1.919,1.919,0,0,0-.242-.9.454.454,0,0,0-.358-.2Zm-18.7,1.559a.136.136,0,0,0-.018.011l-.011.007a2.314,2.314,0,0,1-.224.2c-.207.235-.244.4-.231.872.012.05.393,1.11.716,1.855a5.754,5.754,0,0,1,.271,2.5,6.155,6.155,0,0,1-2.524,2.64,1.319,1.319,0,0,1-1.056,0l0,0a.653.653,0,0,1-.278-.6s0,0,0,0l0,0a5.949,5.949,0,0,0,2.535-2.622,2.683,2.683,0,0,0,.069-1.888,1.8,1.8,0,0,0-.427-.875l0,0c.142-.068.511.2.568.033a2.749,2.749,0,0,0-.727-1.342.614.614,0,0,0-.893-.054c-.307.171-.372.784-.224,1.32.164.4.607.475.922,1.287,0,0,0,0,0,0,.007.051.108.607-.051.832a9.963,9.963,0,0,1-1.9,1.787l-.011.007,0,0,0,0,0,0h-.007l0,0s0,0,0,0l0-.007c0-.033,0-.116,0-.25-.011-.245.09-.8.083-.893,0,0,0,0,0,0l0,0s0,0,0,0h0c-.547.353-.728,1.437-.828,1.758a25.976,25.976,0,0,0-3.866,2.64c-.472.737,3.252-.846,3.685-1.038l.011.011c.082.091.089.406.336.691a1.969,1.969,0,0,0,2.011.647,6.38,6.38,0,0,0,2.9-2.416c.113-.164.289-.293.452-.166.541,1.212,2.1,2.074,4.119,2.163.467-.568.244-.847.054-.966-.058-.039-1-.407-1.15-.774-.092-.341.132-.644.582-.872a20.242,20.242,0,0,0,3.8-.727,3.345,3.345,0,0,1,.419-1.3.614.614,0,0,1,.213-.231l0,0,0,0,0,0s0-.006,0-.007a.119.119,0,0,0,0-.036l-.21-.123L56.6,32.013a.442.442,0,0,1-.112-.058l-.007-.007,0,0,0,0,0-.007,0,0s0,0,0,0l0,0s0,0,0,0,0,0,0,0,0,0,0,0,0,0,0,0,0,0,0,0,0,0,0,0,0,0,0,0,0,0,0,0l0,0,0-.007a.31.31,0,0,1,.13-.076c.987-.134,2.741-.422,2.857-2.108a1.385,1.385,0,1,0-2.719.058c-.038.227.077.673-.156.723-1.519.139-3.177,1.091-3.233,1.772h0l0,0-.007,0h-.007l-.011,0H53.29l-.014,0a.4.4,0,0,1-.206-.419A8.151,8.151,0,0,0,52.028,28.3c-.214-.214-.308-.3-.369-.311H51.63Zm3.956.622a.261.261,0,0,0-.2.2c-.019.077.037.2-.033.242-.04.04-.194.017-.188-.2a.367.367,0,0,0-.08-.184.147.147,0,0,0-.1-.025c-.066,0-.068.02-.1.076a.659.659,0,0,0-.036.177c-.008.075-.035.1-.09.112s-.047.007-.1-.025c-.03-.033-.069-.046-.069-.1a.6.6,0,0,0-.029-.188.207.207,0,0,0-.119-.061c-.26,0-.275.3-.26.409-.019.021-.033.554.322.7.476.227,1.61.093,1.334-.64,0-.068-.019-.3-.025-.358a.2.2,0,0,0-.224-.141Zm15.966.655a.079.079,0,0,0-.04,0s-2.206,1.569-2.26,1.624c-.219.194-.109.878,0,.8a8.78,8.78,0,0,0,2.336-1.62c.1.006.143-.774-.036-.806ZM57.67,29.5a.564.564,0,0,1,.322.087c.165.1.266.239.253.344,0,0,0,.008,0,.011s-.006.008-.007.011l0,.011,0,.007,0,.007a.144.144,0,0,1-.022.025.4.4,0,0,1-.434-.036.433.433,0,0,1-.253-.344s0-.008,0-.011a.122.122,0,0,1,.014-.036s0-.011.007-.014l0,0a.165.165,0,0,1,.018-.018.207.207,0,0,1,.1-.04Zm-19.315.4c-1.143.021-2.816,1.5-2.861,2.318,1.206-.579,2.39-1.137,3.616-1.736-.2-.3-.012-.561-.756-.582Zm3.7.514a.309.309,0,0,1,.293.213.371.371,0,0,1-.065.369s0,0,0,0l0,.007c-.048.062-.216.036-.336.036a.326.326,0,0,1-.3-.148c-.042-.131.085-.26.141-.358l0,0a.188.188,0,0,1,.025-.029.378.378,0,0,1,.2-.087.348.348,0,0,1,.047,0Zm29.065.455a.383.383,0,0,0-.307.524c-.056.18.276.811.362,1.146.077.238-.1.913.061.984s.538-.4.524-1c.043-.309-.11-1.448-.5-1.642a.366.366,0,0,0-.141-.011ZM46.438,31.981c-.18.013-.34.109-.268.362-.011.184.507.407.539.832.074.175-.111.736.043.788s.338-.388.412-.8c.041-.227-.178-1.022-.55-1.164a.636.636,0,0,0-.177-.014Zm7.388,1.009h.047a12.807,12.807,0,0,0,1.729.2c.48.03.717.406.268.564s-.87.27-.872.911a.884.884,0,0,1,0,.561l-.014.018,0,0,0,0,0,0,0,0-.007,0-.022.011a.153.153,0,0,1-.022,0c-.105.015-.259-.085-.372-.145a2.344,2.344,0,0,1-1.15-1.692.43.43,0,0,1,.434-.448Zm-18.046.785c-.029,0-.086.087-.163.184a3.587,3.587,0,0,0-.365,3.182.793.793,0,0,0,.77.257,1.414,1.414,0,0,0,.514-1.367c-.143-.223-.255-.258-.4-.069-.3.61-.426.193-.452-.148a7.836,7.836,0,0,1,.087-1.714c.037-.242.036-.326.007-.325ZM58.944,35.2a.312.312,0,0,0-.159.033,2.887,2.887,0,0,0-.64.546c-.094.071-.083.133-.054.257.073.168.2.115.347.036.194-.026.287.1.271.333a.428.428,0,0,0,.04.416.321.321,0,0,0,.405.051,7.662,7.662,0,0,1,1.4-.488c.17,0,.16-.458-.108-.474a1.588,1.588,0,0,0-1.023.311c-.215.05-.252-.081-.3-.2-.055-.292.123-.5.087-.716a.506.506,0,0,0-.26-.1Zm14.831.553c-.086,0-.176.015-.307.025-.142.03-.191.092-.217.264.01.261.17.248.333.351a.282.282,0,0,1-.007.427c-.155.142-.265.22-.419.362-.073.125-.118.316.1.376.412.116,1.367-.5,1.367-.517a.3.3,0,0,0,.09-.336c-.09-.1-.294-.041-.43-.058-.065,0-.279-.032-.177-.221a1.281,1.281,0,0,0,.174-.333c.064-.142.008-.237-.224-.315a1.287,1.287,0,0,0-.286-.025Zm-6.2,12.544,0,0a.651.651,0,0,0-.224,1.2c-7.244,0-18.359-.123-20.743-.123-1.334,0-5.553-.159-5.634-.159.9,1.324,2.216,1.593,3.931,1.62,3.217,0,18.124-.04,22.367-.04a1.487,1.487,0,0,0,.264,1.555l.018.011a.163.163,0,0,0,.029.011h.011c.281.066.4-.137.5-.286a29.065,29.065,0,0,0,3.255,0l0,0c.159.234.316.454.618.416.529-.113.945-.171.958-1.244,0,0-.054-1.829-1.255-1.714-.284.043-1.081.123-1.081.123-.923-.11-1.6-.121-2.636-.159.1-.122.265-.614.058-.792a.334.334,0,0,0-.246-.061h-.011l0,0-.011,0a.11.11,0,0,1-.018-.018l-.007-.007c-.052-.076-.081-.264-.116-.311l0,0,0,0-.007,0h-.007Zm.492,2.615h0c1.057.052,2.05.01,3.106.061a.383.383,0,0,1-.025.528l-.018.007h-.029c-.344-.009-.542-.017-.886-.025a.2.2,0,0,0-.007-.051c-.081-.241-.671-.225-.81-.036L69.4,51.4l-.007.014-.007.018a.177.177,0,0,0,0,.025.163.163,0,0,0,0,.029,8.3,8.3,0,0,1-1.345-.033c-.136-.169-.12-.476.04-.55Z" transform="translate(-13.465 -8.535)"/></g></g></svg>