<svg xmlns="http://www.w3.org/2000/svg" xmlns:xlink="http://www.w3.org/1999/xlink" width="86" height="58" viewBox="0 0 86 58"><defs><style>.a{fill:#f8f8fa;}.b{clip-path:url(#a);}.c{fill:#03aa6f;}.d{fill:#86daf1;}</style><clipPath id="a"><rect class="a" width="86" height="58" rx="8" transform="translate(949.088 1405.931)"/></clipPath></defs><g class="b" transform="translate(-949.088 -1405.931)"><g transform="translate(939.945 1382.668)"><g transform="translate(4.057 3.842)"><path class="c" d="M314.832,37.62l-5.395,3.6-8.991-1.8-5.395-1.8-7.193,1.8-5.395-1.8,3.6-7.193h7.193L300.3,26.9A51.5,51.5,0,0,1,314.832,37.62Z" transform="translate(-228.988 -25.213)"/><path class="c" d="M64.4,23.819l-1.8,5.395-5.395,1.8L51.815,40,42.824,45.4l-12.587,1.8v5.395l3.6,3.6v7.193l-5.394-3.6-5.395-3.6-3.129-9.4A52.113,52.113,0,0,1,48.506,18.6l5.107,3.417Z" transform="translate(-19.916 -18.604)"/><path class="c" d="M108.351,228.124l-1.8,8.991-7.193,7.193V249.7L92.168,255.1v8.991l-5.394-1.8-3.6-8.991V235.317l-8.991-1.8-3.6-7.193v-5.395l3.6-3.6,5.395-5.395,3.6,7.193H95.764l5.395,8.991Z" transform="translate(-60.269 -172.562)"/><path class="c" d="M315.536,118.121a52.1,52.1,0,0,1-2.877,55.509l-4.855-4.855v-7.193l-3.6-7.193-3.6-7.193V140l-5.395-3.6-7.193,1.8-12.587-5.395-1.8-12.587,5.395-5.395h10.789l3.6,5.395,10.789,1.8,10.789-3.6Z" transform="translate(-221.96 -95.23)"/></g><path class="d" d="M62.928,18.048l7.193-1.8,5.395,1.8,8.991,1.8,5.395-3.6a51.353,51.353,0,0,1,7.732,10.483l-.539.306L86.3,30.635l-10.789-1.8-3.6-5.395H61.13l-5.395,5.395,1.8,12.587,12.587,5.395,7.193-1.8,5.395,3.6v7.193L86.3,63l3.6,7.193v7.193l4.855,4.855a52.146,52.146,0,0,1-90.7-50.222l3.129,9.4,5.395,3.6,5.395,3.6-3.6,3.6v5.395l3.6,7.193,8.991,1.8V84.579l3.6,8.991,5.395,1.8V86.377l7.193-5.395V75.588L50.341,68.4l1.8-8.991H44.946l-5.395-8.991H26.965l-3.6-7.193-5.395,5.395V41.423l-3.6-3.6V32.433l12.587-1.8,8.991-5.395,5.395-8.991,5.395-1.8,1.8-5.395-10.789-1.8L32.647,3.842a52.15,52.15,0,0,1,42.724,1.69L68.322,9.057H61.13l-3.6,7.193Z" transform="translate(0 0)"/></g></g></svg>